<?xml version="1.0" standalone="no"?>
<!DOCTYPE svg PUBLIC "-//W3C//DTD SVG 20010904//EN"
 "http://www.w3.org/TR/2001/REC-SVG-20010904/DTD/svg10.dtd">
<svg version="1.0" xmlns="http://www.w3.org/2000/svg"
 width="512.000000pt" height="512.000000pt" viewBox="0 0 512.000000 512.000000"
 preserveAspectRatio="xMidYMid meet">

<g transform="translate(0.000000,512.000000) scale(0.100000,-0.100000)"
fill="#000000" stroke="none">
<path d="M1139 4147 c-125 -43 -238 -157 -274 -280 -23 -76 -20 -204 6 -274
58 -154 183 -257 347 -284 211 -35 425 108 482 320 16 60 14 172 -4 235 -67
230 -327 362 -557 283z m231 -258 c45 -25 77 -73 86 -125 22 -140 -129 -249
-254 -185 -114 58 -136 199 -44 286 59 56 138 65 212 24z"/>
<path d="M2172 3860 c-45 -10 -80 -46 -93 -92 -8 -31 -6 -46 9 -81 37 -82 -39
-77 1087 -77 1094 0 1041 -3 1078 59 9 16 17 50 17 75 0 58 -37 103 -95 116
-49 12 -1956 11 -2003 0z"/>
<path d="M1222 2988 c-139 -16 -272 -113 -335 -245 -30 -64 -32 -74 -32 -184
0 -113 1 -116 38 -191 45 -91 112 -157 207 -202 61 -29 72 -31 180 -31 109 0
119 2 183 32 89 42 168 121 210 210 30 64 32 74 32 183 0 108 -2 119 -31 180
-84 176 -256 271 -452 248z m157 -281 c114 -76 101 -246 -24 -307 -88 -43
-191 -6 -235 85 -78 160 109 321 259 222z"/>
<path d="M2143 2670 c-44 -26 -66 -63 -66 -111 0 -49 26 -87 74 -111 32 -17
101 -18 1022 -18 1072 0 1030 -2 1075 55 30 38 30 112 0 150 -45 57 -2 55
-1080 55 -967 0 -994 -1 -1025 -20z"/>
<path d="M1185 1806 c-201 -49 -336 -218 -336 -420 0 -101 20 -167 73 -246
168 -253 548 -252 716 0 58 86 75 151 70 264 -3 76 -9 102 -35 159 -59 125
-163 211 -294 242 -75 17 -126 18 -194 1z m173 -265 c46 -23 67 -46 87 -94 63
-151 -106 -299 -250 -218 -79 44 -112 133 -81 215 38 99 151 144 244 97z"/>
<path d="M2141 1493 c-48 -24 -76 -88 -62 -141 13 -48 48 -81 98 -93 51 -12
1946 -11 1998 1 58 13 95 58 95 116 0 25 -8 59 -17 75 -37 62 16 59 -1080 59
-912 0 -1001 -2 -1032 -17z"/>
</g>
</svg>
